<?xml version="1.0" encoding="utf-8"?>
<!DOCTYPE svg PUBLIC "-//W3C//DTD SVG 1.1//EN" "http://www.w3.org/Graphics/SVG/1.1/DTD/svg11.dtd">
<svg version="1.1" xmlns="http://www.w3.org/2000/svg" xmlns:xlink="http://www.w3.org/1999/xlink" x="0px" y="0px" viewBox="0 0 1000 1000" enable-background="new 0 0 1000 1000" xml:space="preserve">
	<g>
		<g transform="translate(0.000000,446.000000) scale(0.100000,-0.100000)">
			<path fill='#FFFFFF' d="M4325.2,4323.3c-1085.9-152.3-2140.9-695.2-2891.3-1492C769.6,2125,334.8,1259.9,162.6,302C103-29.1,81-697.8,118.5-1051c117-1123.4,609.1-2149.7,1414.7-2955.3C2266-4739,3140-5193.7,4175.1-5379.1c381.8-68.4,1207.3-72.8,1584.7-11c1743.6,293.5,3156.1,1428,3805,3059c414.9,1037.3,445.8,2262.3,86.1,3346c-399.5,1207.3-1282.3,2231.4-2419,2811.8c-456.9,231.7-882.8,375.2-1390.5,467.9C5494.9,4358.6,4687.1,4374.1,4325.2,4323.3z M6739.7,2041.2c434.8-57.4,805.6-408.3,885-836.5c13.2-72.8,22.1-783.5,22.1-1827.5c0-1902.5,0-1895.9-145.7-2140.9c-117-194.2-240.6-306.8-448-410.5l-185.4-92.7l-1831.9-6.6c-1602.3-4.4-1847.3-2.2-1966.5,28.7c-355.4,90.5-662.1,414.9-739.4,779.1c-17.7,79.4-24.3,659.9-24.3,1854c0,1893.7,0,1898.1,125.8,2129.8c143.5,260.4,467.9,483.4,757,520.9C3391.6,2065.4,6538.9,2067.7,6739.7,2041.2z"/>
			<path fill='#FFFFFF' d="M6124,992.8V540.4h452.5h452.4v452.5v452.5h-452.4H6124V992.8z"/>
			<path fill='#FFFFFF'  d="M4680.5,275.5c-664.3-236.2-858.6-1055-368.6-1547.2c465.7-463.5,1229.4-331.1,1509.6,260.5c66.2,141.2,70.6,165.5,70.6,392.9s-4.4,251.6-70.6,390.7C5724.5-22.5,5581,125.4,5378,224.7c-145.7,72.8-185.4,83.9-366.4,88.3C4850.5,319.6,4784.2,310.8,4680.5,275.5z"/>
			<path fill='#FFFFFF' d="M2835.4-1225.3c0-913.7,6.6-1163.1,28.7-1220.5c44.1-103.7,141.3-209.7,245-264.9l90.5-48.6l1699.5-6.6c1196.2-4.4,1732.6,0,1814.2,17.7c156.7,33.1,275.9,125.8,346.5,267.1l57.4,117v1143.3V-77.6h-392.9h-395.1l44.1-125.8c68.4-192,66.2-598.1-2.2-823.2c-79.4-251.6-189.8-432.6-379.6-620.2c-185.4-185.4-426-322.2-673.2-384c-165.5-41.9-509.8-41.9-690.8,0c-518.7,123.6-957.9,573.8-1077.1,1105.7c-44.1,203.1-33.1,558.4,22.1,712.9c19.9,53,35.3,103.7,35.3,114.8s-174.3,19.9-386.2,19.9h-386.2V-1225.3z"/>
		</g>
	</g>
</svg>